<svg xmlns="http://www.w3.org/2000/svg" viewBox="0 0 900 420" font-family="ui-monospace,monospace">
  <rect width="900" height="420" fill="#0b0e14"/>
  <text x="40" y="32" font-size="16" fill="#d7dce6" font-weight="600">FirmLab · demo-router.bin</text>
  <text x="40" y="52" font-size="12" fill="#8a93a6">embedded-linux · mipsel/little · fs: squashfs · 512 KB · 3 secrets</text>
  <text x="40" y="66" font-size="10" fill="#5b6577">STRUCTURE MAP</text>
  <rect x="40.0" y="70" width="0.5" height="46" fill="#37d19a" opacity="0.92"/><rect x="40.4" y="70" width="614.6" height="46" fill="#7c5cff" opacity="0.92"/><rect x="655.0" y="70" width="205.0" height="46" fill="#4db5ff" opacity="0.92"/>
  <text x="40" y="146" font-size="10" fill="#5b6577">ENTROPY (0–8 bits/byte, dashed = 7.2 compressed/encrypted floor)</text>
  <rect x="245.0" y="150" width="1.0" height="200" fill="#f5b642" opacity="0.09"/><rect x="246.2" y="150" width="1.0" height="200" fill="#f5b642" opacity="0.09"/><rect x="247.4" y="150" width="1.0" height="200" fill="#f5b642" opacity="0.09"/><rect x="249.0" y="150" width="1.0" height="200" fill="#f5b642" opacity="0.09"/><rect x="252.6" y="150" width="1.0" height="200" fill="#f5b642" opacity="0.09"/><rect x="253.8" y="150" width="1.0" height="200" fill="#f5b642" opacity="0.09"/><rect x="255.4" y="150" width="1.2" height="200" fill="#f5b642" opacity="0.09"/><rect x="257.4" y="150" width="1.0" height="200" fill="#f5b642" opacity="0.09"/><rect x="258.2" y="150" width="1.0" height="200" fill="#f5b642" opacity="0.09"/><rect x="259.0" y="150" width="1.0" height="200" fill="#f5b642" opacity="0.09"/><rect x="260.6" y="150" width="1.0" height="200" fill="#f5b642" opacity="0.09"/><rect x="261.8" y="150" width="1.0" height="200" fill="#f5b642" opacity="0.09"/><rect x="263.8" y="150" width="1.0" height="200" fill="#f5b642" opacity="0.09"/><rect x="265.4" y="150" width="1.0" height="200" fill="#f5b642" opacity="0.09"/><rect x="267.8" y="150" width="1.0" height="200" fill="#f5b642" opacity="0.09"/><rect x="268.6" y="150" width="1.6" height="200" fill="#f5b642" opacity="0.09"/><rect x="271.4" y="150" width="1.0" height="200" fill="#f5b642" opacity="0.09"/><rect x="272.6" y="150" width="1.0" height="200" fill="#f5b642" opacity="0.09"/><rect x="275.0" y="150" width="1.2" height="200" fill="#f5b642" opacity="0.09"/><rect x="276.6" y="150" width="1.2" height="200" fill="#f5b642" opacity="0.09"/><rect x="278.2" y="150" width="1.0" height="200" fill="#f5b642" opacity="0.09"/><rect x="280.2" y="150" width="1.0" height="200" fill="#f5b642" opacity="0.09"/><rect x="281.8" y="150" width="1.0" height="200" fill="#f5b642" opacity="0.09"/><rect x="284.2" y="150" width="1.0" height="200" fill="#f5b642" opacity="0.09"/><rect x="285.8" y="150" width="1.0" height="200" fill="#f5b642" opacity="0.09"/><rect x="287.8" y="150" width="1.0" height="200" fill="#f5b642" opacity="0.09"/><rect x="289.0" y="150" width="1.0" height="200" fill="#f5b642" opacity="0.09"/><rect x="289.8" y="150" width="1.0" height="200" fill="#f5b642" opacity="0.09"/><rect x="291.0" y="150" width="2.8" height="200" fill="#f5b642" opacity="0.09"/><rect x="294.6" y="150" width="1.0" height="200" fill="#f5b642" opacity="0.09"/><rect x="296.3" y="150" width="1.0" height="200" fill="#f5b642" opacity="0.09"/><rect x="298.3" y="150" width="1.0" height="200" fill="#f5b642" opacity="0.09"/><rect x="299.5" y="150" width="1.0" height="200" fill="#f5b642" opacity="0.09"/><rect x="300.7" y="150" width="1.2" height="200" fill="#f5b642" opacity="0.09"/><rect x="302.3" y="150" width="1.0" height="200" fill="#f5b642" opacity="0.09"/><rect x="304.3" y="150" width="1.0" height="200" fill="#f5b642" opacity="0.09"/><rect x="305.5" y="150" width="1.0" height="200" fill="#f5b642" opacity="0.09"/><rect x="306.3" y="150" width="1.0" height="200" fill="#f5b642" opacity="0.09"/><rect x="307.9" y="150" width="1.0" height="200" fill="#f5b642" opacity="0.09"/><rect x="308.7" y="150" width="1.6" height="200" fill="#f5b642" opacity="0.09"/><rect x="311.1" y="150" width="1.0" height="200" fill="#f5b642" opacity="0.09"/><rect x="312.7" y="150" width="1.0" height="200" fill="#f5b642" opacity="0.09"/><rect x="314.7" y="150" width="1.0" height="200" fill="#f5b642" opacity="0.09"/><rect x="316.7" y="150" width="2.4" height="200" fill="#f5b642" opacity="0.09"/><rect x="320.7" y="150" width="1.0" height="200" fill="#f5b642" opacity="0.09"/><rect x="321.9" y="150" width="1.0" height="200" fill="#f5b642" opacity="0.09"/><rect x="322.7" y="150" width="1.0" height="200" fill="#f5b642" opacity="0.09"/><rect x="324.3" y="150" width="1.0" height="200" fill="#f5b642" opacity="0.09"/><rect x="325.5" y="150" width="1.0" height="200" fill="#f5b642" opacity="0.09"/><rect x="329.1" y="150" width="1.0" height="200" fill="#f5b642" opacity="0.09"/><rect x="330.7" y="150" width="1.2" height="200" fill="#f5b642" opacity="0.09"/><rect x="332.3" y="150" width="1.0" height="200" fill="#f5b642" opacity="0.09"/><rect x="333.1" y="150" width="1.0" height="200" fill="#f5b642" opacity="0.09"/><rect x="333.9" y="150" width="1.0" height="200" fill="#f5b642" opacity="0.09"/><rect x="336.7" y="150" width="1.2" height="200" fill="#f5b642" opacity="0.09"/><rect x="338.3" y="150" width="1.0" height="200" fill="#f5b642" opacity="0.09"/><rect x="339.1" y="150" width="1.0" height="200" fill="#f5b642" opacity="0.09"/><rect x="340.7" y="150" width="1.0" height="200" fill="#f5b642" opacity="0.09"/><rect x="341.9" y="150" width="1.0" height="200" fill="#f5b642" opacity="0.09"/><rect x="345.5" y="150" width="1.0" height="200" fill="#f5b642" opacity="0.09"/><rect x="346.7" y="150" width="1.0" height="200" fill="#f5b642" opacity="0.09"/><rect x="347.9" y="150" width="1.0" height="200" fill="#f5b642" opacity="0.09"/><rect x="349.5" y="150" width="2.0" height="200" fill="#f5b642" opacity="0.09"/><rect x="353.1" y="150" width="1.2" height="200" fill="#f5b642" opacity="0.09"/><rect x="354.7" y="150" width="1.0" height="200" fill="#f5b642" opacity="0.09"/><rect x="355.5" y="150" width="1.0" height="200" fill="#f5b642" opacity="0.09"/><rect x="357.5" y="150" width="1.2" height="200" fill="#f5b642" opacity="0.09"/><rect x="359.1" y="150" width="1.0" height="200" fill="#f5b642" opacity="0.09"/><rect x="359.9" y="150" width="1.0" height="200" fill="#f5b642" opacity="0.09"/><rect x="361.9" y="150" width="1.0" height="200" fill="#f5b642" opacity="0.09"/><rect x="363.1" y="150" width="1.0" height="200" fill="#f5b642" opacity="0.09"/><rect x="364.7" y="150" width="1.0" height="200" fill="#f5b642" opacity="0.09"/><rect x="365.9" y="150" width="1.0" height="200" fill="#f5b642" opacity="0.09"/><rect x="367.1" y="150" width="1.0" height="200" fill="#f5b642" opacity="0.09"/><rect x="369.5" y="150" width="1.0" height="200" fill="#f5b642" opacity="0.09"/><rect x="371.1" y="150" width="1.0" height="200" fill="#f5b642" opacity="0.09"/><rect x="373.5" y="150" width="1.0" height="200" fill="#f5b642" opacity="0.09"/><rect x="374.7" y="150" width="1.2" height="200" fill="#f5b642" opacity="0.09"/><rect x="378.3" y="150" width="1.0" height="200" fill="#f5b642" opacity="0.09"/><rect x="379.5" y="150" width="1.0" height="200" fill="#f5b642" opacity="0.09"/><rect x="380.3" y="150" width="1.0" height="200" fill="#f5b642" opacity="0.09"/><rect x="381.1" y="150" width="1.0" height="200" fill="#f5b642" opacity="0.09"/><rect x="382.7" y="150" width="2.0" height="200" fill="#f5b642" opacity="0.09"/><rect x="386.3" y="150" width="1.2" height="200" fill="#f5b642" opacity="0.09"/><rect x="388.3" y="150" width="1.0" height="200" fill="#f5b642" opacity="0.09"/><rect x="389.1" y="150" width="1.0" height="200" fill="#f5b642" opacity="0.09"/><rect x="389.9" y="150" width="1.0" height="200" fill="#f5b642" opacity="0.09"/><rect x="391.5" y="150" width="1.0" height="200" fill="#f5b642" opacity="0.09"/><rect x="392.7" y="150" width="1.0" height="200" fill="#f5b642" opacity="0.09"/><rect x="394.7" y="150" width="1.0" height="200" fill="#f5b642" opacity="0.09"/><rect x="396.3" y="150" width="1.0" height="200" fill="#f5b642" opacity="0.09"/><rect x="397.5" y="150" width="1.0" height="200" fill="#f5b642" opacity="0.09"/><rect x="399.6" y="150" width="1.6" height="200" fill="#f5b642" opacity="0.09"/><rect x="402.8" y="150" width="1.2" height="200" fill="#f5b642" opacity="0.09"/><rect x="406.0" y="150" width="1.2" height="200" fill="#f5b642" opacity="0.09"/><rect x="408.0" y="150" width="1.0" height="200" fill="#f5b642" opacity="0.09"/><rect x="409.2" y="150" width="1.0" height="200" fill="#f5b642" opacity="0.09"/><rect x="411.2" y="150" width="1.0" height="200" fill="#f5b642" opacity="0.09"/><rect x="412.8" y="150" width="1.0" height="200" fill="#f5b642" opacity="0.09"/><rect x="415.2" y="150" width="1.0" height="200" fill="#f5b642" opacity="0.09"/><rect x="416.0" y="150" width="1.6" height="200" fill="#f5b642" opacity="0.09"/><rect x="418.0" y="150" width="1.0" height="200" fill="#f5b642" opacity="0.09"/><rect x="418.8" y="150" width="1.2" height="200" fill="#f5b642" opacity="0.09"/><rect x="420.8" y="150" width="1.0" height="200" fill="#f5b642" opacity="0.09"/><rect x="422.4" y="150" width="2.8" height="200" fill="#f5b642" opacity="0.09"/><rect x="425.6" y="150" width="1.0" height="200" fill="#f5b642" opacity="0.09"/><rect x="427.6" y="150" width="1.0" height="200" fill="#f5b642" opacity="0.09"/><rect x="429.2" y="150" width="1.0" height="200" fill="#f5b642" opacity="0.09"/><rect x="430.4" y="150" width="1.0" height="200" fill="#f5b642" opacity="0.09"/><rect x="431.6" y="150" width="1.0" height="200" fill="#f5b642" opacity="0.09"/><rect x="432.8" y="150" width="1.0" height="200" fill="#f5b642" opacity="0.09"/><rect x="435.2" y="150" width="1.0" height="200" fill="#f5b642" opacity="0.09"/><rect x="436.4" y="150" width="1.0" height="200" fill="#f5b642" opacity="0.09"/><rect x="437.2" y="150" width="1.0" height="200" fill="#f5b642" opacity="0.09"/><rect x="438.8" y="150" width="2.4" height="200" fill="#f5b642" opacity="0.09"/><rect x="443.6" y="150" width="1.0" height="200" fill="#f5b642" opacity="0.09"/><rect x="445.6" y="150" width="1.0" height="200" fill="#f5b642" opacity="0.09"/><rect x="446.8" y="150" width="1.0" height="200" fill="#f5b642" opacity="0.09"/><rect x="447.6" y="150" width="2.4" height="200" fill="#f5b642" opacity="0.09"/><rect x="451.6" y="150" width="1.0" height="200" fill="#f5b642" opacity="0.09"/><rect x="452.8" y="150" width="1.0" height="200" fill="#f5b642" opacity="0.09"/><rect x="453.6" y="150" width="1.0" height="200" fill="#f5b642" opacity="0.09"/><rect x="455.2" y="150" width="1.0" height="200" fill="#f5b642" opacity="0.09"/><rect x="456.0" y="150" width="1.6" height="200" fill="#f5b642" opacity="0.09"/><rect x="460.0" y="150" width="1.0" height="200" fill="#f5b642" opacity="0.09"/><rect x="461.2" y="150" width="1.0" height="200" fill="#f5b642" opacity="0.09"/><rect x="462.0" y="150" width="1.2" height="200" fill="#f5b642" opacity="0.09"/><rect x="464.0" y="150" width="1.0" height="200" fill="#f5b642" opacity="0.09"/><rect x="464.8" y="150" width="1.0" height="200" fill="#f5b642" opacity="0.09"/><rect x="468.0" y="150" width="1.0" height="200" fill="#f5b642" opacity="0.09"/><rect x="469.2" y="150" width="1.0" height="200" fill="#f5b642" opacity="0.09"/><rect x="470.0" y="150" width="1.0" height="200" fill="#f5b642" opacity="0.09"/><rect x="471.6" y="150" width="1.0" height="200" fill="#f5b642" opacity="0.09"/><rect x="472.8" y="150" width="1.0" height="200" fill="#f5b642" opacity="0.09"/><rect x="474.4" y="150" width="1.0" height="200" fill="#f5b642" opacity="0.09"/><rect x="476.4" y="150" width="1.0" height="200" fill="#f5b642" opacity="0.09"/><rect x="477.6" y="150" width="1.0" height="200" fill="#f5b642" opacity="0.09"/><rect x="478.8" y="150" width="1.0" height="200" fill="#f5b642" opacity="0.09"/><rect x="480.4" y="150" width="1.0" height="200" fill="#f5b642" opacity="0.09"/><rect x="481.2" y="150" width="1.2" height="200" fill="#f5b642" opacity="0.09"/><rect x="484.0" y="150" width="1.2" height="200" fill="#f5b642" opacity="0.09"/><rect x="486.4" y="150" width="1.0" height="200" fill="#f5b642" opacity="0.09"/><rect x="488.4" y="150" width="1.0" height="200" fill="#f5b642" opacity="0.09"/><rect x="489.2" y="150" width="1.0" height="200" fill="#f5b642" opacity="0.09"/><rect x="490.8" y="150" width="1.0" height="200" fill="#f5b642" opacity="0.09"/><rect x="492.8" y="150" width="1.0" height="200" fill="#f5b642" opacity="0.09"/><rect x="494.0" y="150" width="1.0" height="200" fill="#f5b642" opacity="0.09"/><rect x="495.2" y="150" width="1.0" height="200" fill="#f5b642" opacity="0.09"/><rect x="496.8" y="150" width="1.0" height="200" fill="#f5b642" opacity="0.09"/><rect x="498.0" y="150" width="1.0" height="200" fill="#f5b642" opacity="0.09"/><rect x="500.4" y="150" width="1.2" height="200" fill="#f5b642" opacity="0.09"/><rect x="502.1" y="150" width="1.0" height="200" fill="#f5b642" opacity="0.09"/><rect x="502.9" y="150" width="1.0" height="200" fill="#f5b642" opacity="0.09"/><rect x="504.9" y="150" width="2.0" height="200" fill="#f5b642" opacity="0.09"/><rect x="509.3" y="150" width="1.0" height="200" fill="#f5b642" opacity="0.09"/><rect x="512.1" y="150" width="1.0" height="200" fill="#f5b642" opacity="0.09"/><rect x="513.7" y="150" width="1.0" height="200" fill="#f5b642" opacity="0.09"/><rect x="514.9" y="150" width="1.0" height="200" fill="#f5b642" opacity="0.09"/><rect x="516.9" y="150" width="1.2" height="200" fill="#f5b642" opacity="0.09"/><rect x="518.5" y="150" width="1.0" height="200" fill="#f5b642" opacity="0.09"/><rect x="521.3" y="150" width="1.0" height="200" fill="#f5b642" opacity="0.09"/><rect x="522.1" y="150" width="1.2" height="200" fill="#f5b642" opacity="0.09"/><rect x="525.7" y="150" width="1.0" height="200" fill="#f5b642" opacity="0.09"/><rect x="527.7" y="150" width="1.0" height="200" fill="#f5b642" opacity="0.09"/><rect x="528.5" y="150" width="1.0" height="200" fill="#f5b642" opacity="0.09"/><rect x="530.1" y="150" width="2.0" height="200" fill="#f5b642" opacity="0.09"/><rect x="533.7" y="150" width="1.2" height="200" fill="#f5b642" opacity="0.09"/><rect x="535.7" y="150" width="1.0" height="200" fill="#f5b642" opacity="0.09"/><rect x="536.5" y="150" width="1.0" height="200" fill="#f5b642" opacity="0.09"/><rect x="537.3" y="150" width="1.0" height="200" fill="#f5b642" opacity="0.09"/><rect x="538.9" y="150" width="1.0" height="200" fill="#f5b642" opacity="0.09"/><rect x="540.1" y="150" width="1.0" height="200" fill="#f5b642" opacity="0.09"/><rect x="542.1" y="150" width="1.0" height="200" fill="#f5b642" opacity="0.09"/><rect x="543.7" y="150" width="1.0" height="200" fill="#f5b642" opacity="0.09"/><rect x="546.1" y="150" width="1.0" height="200" fill="#f5b642" opacity="0.09"/><rect x="546.9" y="150" width="1.6" height="200" fill="#f5b642" opacity="0.09"/><rect x="549.7" y="150" width="1.0" height="200" fill="#f5b642" opacity="0.09"/><rect x="550.9" y="150" width="1.0" height="200" fill="#f5b642" opacity="0.09"/><rect x="553.3" y="150" width="1.2" height="200" fill="#f5b642" opacity="0.09"/><rect x="554.9" y="150" width="1.2" height="200" fill="#f5b642" opacity="0.09"/><rect x="556.5" y="150" width="1.0" height="200" fill="#f5b642" opacity="0.09"/><rect x="558.5" y="150" width="1.0" height="200" fill="#f5b642" opacity="0.09"/><rect x="559.3" y="150" width="1.0" height="200" fill="#f5b642" opacity="0.09"/><rect x="560.1" y="150" width="1.0" height="200" fill="#f5b642" opacity="0.09"/><rect x="562.5" y="150" width="1.0" height="200" fill="#f5b642" opacity="0.09"/><rect x="564.1" y="150" width="1.0" height="200" fill="#f5b642" opacity="0.09"/><rect x="565.7" y="150" width="1.2" height="200" fill="#f5b642" opacity="0.09"/><rect x="568.1" y="150" width="1.0" height="200" fill="#f5b642" opacity="0.09"/><rect x="569.7" y="150" width="2.4" height="200" fill="#f5b642" opacity="0.09"/><rect x="572.9" y="150" width="1.0" height="200" fill="#f5b642" opacity="0.09"/><rect x="574.5" y="150" width="1.0" height="200" fill="#f5b642" opacity="0.09"/><rect x="576.5" y="150" width="1.0" height="200" fill="#f5b642" opacity="0.09"/><rect x="577.7" y="150" width="1.0" height="200" fill="#f5b642" opacity="0.09"/><rect x="578.9" y="150" width="1.0" height="200" fill="#f5b642" opacity="0.09"/><rect x="579.7" y="150" width="1.0" height="200" fill="#f5b642" opacity="0.09"/><rect x="580.5" y="150" width="1.0" height="200" fill="#f5b642" opacity="0.09"/><rect x="582.5" y="150" width="1.0" height="200" fill="#f5b642" opacity="0.09"/><rect x="583.7" y="150" width="1.0" height="200" fill="#f5b642" opacity="0.09"/><rect x="584.5" y="150" width="1.0" height="200" fill="#f5b642" opacity="0.09"/><rect x="586.1" y="150" width="1.0" height="200" fill="#f5b642" opacity="0.09"/><rect x="586.9" y="150" width="1.6" height="200" fill="#f5b642" opacity="0.09"/><rect x="589.3" y="150" width="1.0" height="200" fill="#f5b642" opacity="0.09"/><rect x="590.9" y="150" width="1.0" height="200" fill="#f5b642" opacity="0.09"/><rect x="592.1" y="150" width="1.0" height="200" fill="#f5b642" opacity="0.09"/><rect x="592.9" y="150" width="1.0" height="200" fill="#f5b642" opacity="0.09"/><rect x="594.9" y="150" width="1.6" height="200" fill="#f5b642" opacity="0.09"/><rect x="598.9" y="150" width="1.0" height="200" fill="#f5b642" opacity="0.09"/><rect x="600.1" y="150" width="1.0" height="200" fill="#f5b642" opacity="0.09"/><rect x="600.9" y="150" width="1.0" height="200" fill="#f5b642" opacity="0.09"/><rect x="602.5" y="150" width="1.0" height="200" fill="#f5b642" opacity="0.09"/><rect x="603.8" y="150" width="1.2" height="200" fill="#f5b642" opacity="0.09"/><rect x="607.4" y="150" width="1.0" height="200" fill="#f5b642" opacity="0.09"/><rect x="609.0" y="150" width="1.2" height="200" fill="#f5b642" opacity="0.09"/><rect x="610.6" y="150" width="1.0" height="200" fill="#f5b642" opacity="0.09"/><rect x="611.4" y="150" width="1.0" height="200" fill="#f5b642" opacity="0.09"/><rect x="612.2" y="150" width="1.0" height="200" fill="#f5b642" opacity="0.09"/><rect x="614.2" y="150" width="1.0" height="200" fill="#f5b642" opacity="0.09"/><rect x="615.0" y="150" width="1.2" height="200" fill="#f5b642" opacity="0.09"/><rect x="616.6" y="150" width="1.0" height="200" fill="#f5b642" opacity="0.09"/><rect x="617.4" y="150" width="1.0" height="200" fill="#f5b642" opacity="0.09"/><rect x="619.0" y="150" width="1.0" height="200" fill="#f5b642" opacity="0.09"/><rect x="620.2" y="150" width="1.0" height="200" fill="#f5b642" opacity="0.09"/><rect x="623.8" y="150" width="1.0" height="200" fill="#f5b642" opacity="0.09"/><rect x="625.0" y="150" width="1.0" height="200" fill="#f5b642" opacity="0.09"/><rect x="626.2" y="150" width="1.0" height="200" fill="#f5b642" opacity="0.09"/><rect x="627.8" y="150" width="1.0" height="200" fill="#f5b642" opacity="0.09"/><rect x="628.6" y="150" width="1.2" height="200" fill="#f5b642" opacity="0.09"/><rect x="631.4" y="150" width="1.2" height="200" fill="#f5b642" opacity="0.09"/><rect x="633.0" y="150" width="1.0" height="200" fill="#f5b642" opacity="0.09"/><rect x="633.8" y="150" width="1.0" height="200" fill="#f5b642" opacity="0.09"/><rect x="635.8" y="150" width="1.2" height="200" fill="#f5b642" opacity="0.09"/><rect x="637.4" y="150" width="1.0" height="200" fill="#f5b642" opacity="0.09"/><rect x="638.2" y="150" width="1.0" height="200" fill="#f5b642" opacity="0.09"/><rect x="640.2" y="150" width="1.0" height="200" fill="#f5b642" opacity="0.09"/><rect x="641.4" y="150" width="1.0" height="200" fill="#f5b642" opacity="0.09"/><rect x="643.0" y="150" width="1.0" height="200" fill="#f5b642" opacity="0.09"/><rect x="644.6" y="150" width="1.0" height="200" fill="#f5b642" opacity="0.09"/><rect x="645.4" y="150" width="1.0" height="200" fill="#f5b642" opacity="0.09"/><rect x="647.8" y="150" width="2.0" height="200" fill="#f5b642" opacity="0.09"/><rect x="651.8" y="150" width="1.6" height="200" fill="#f5b642" opacity="0.09"/><rect x="653.8" y="150" width="1.0" height="200" fill="#f5b642" opacity="0.09"/>
  <line x1="40" y1="170" x2="860" y2="170" stroke="#f5b642" stroke-dasharray="4 4" opacity="0.6"/>
  <path d="M40.0,342.6 L40.4,343.8 L40.8,350.0 L41.2,350.0 L41.6,350.0 L42.0,350.0 L42.4,350.0 L42.8,350.0 L43.2,350.0 L43.6,350.0 L44.0,350.0 L44.4,350.0 L44.8,350.0 L45.2,350.0 L45.6,350.0 L46.0,350.0 L46.4,350.0 L46.8,350.0 L47.2,350.0 L47.6,350.0 L48.0,350.0 L48.4,350.0 L48.8,350.0 L49.2,350.0 L49.6,350.0 L50.0,350.0 L50.4,350.0 L50.8,350.0 L51.2,350.0 L51.6,350.0 L52.0,350.0 L52.4,350.0 L52.8,287.0 L53.2,350.0 L53.6,350.0 L54.0,350.0 L54.4,350.0 L54.8,350.0 L55.2,350.0 L55.6,350.0 L56.0,350.0 L56.4,350.0 L56.8,350.0 L57.2,350.0 L57.6,350.0 L58.0,350.0 L58.4,350.0 L58.8,350.0 L59.2,350.0 L59.6,350.0 L60.0,350.0 L60.4,350.0 L60.8,350.0 L61.2,350.0 L61.6,350.0 L62.0,350.0 L62.4,350.0 L62.8,350.0 L63.2,350.0 L63.6,350.0 L64.0,350.0 L64.4,350.0 L64.8,350.0 L65.2,350.0 L65.6,350.0 L66.0,350.0 L66.4,350.0 L66.8,350.0 L67.2,350.0 L67.6,350.0 L68.0,350.0 L68.4,350.0 L68.8,350.0 L69.2,350.0 L69.6,350.0 L70.0,350.0 L70.4,350.0 L70.8,350.0 L71.2,350.0 L71.6,350.0 L72.0,350.0 L72.4,350.0 L72.8,350.0 L73.2,350.0 L73.6,350.0 L74.0,350.0 L74.4,350.0 L74.8,350.0 L75.2,350.0 L75.6,350.0 L76.0,350.0 L76.4,350.0 L76.8,350.0 L77.2,350.0 L77.6,350.0 L78.0,350.0 L78.4,350.0 L78.8,350.0 L79.2,350.0 L79.6,350.0 L80.0,350.0 L80.4,350.0 L80.8,350.0 L81.2,350.0 L81.6,350.0 L82.0,350.0 L82.4,350.0 L82.8,350.0 L83.2,350.0 L83.6,350.0 L84.0,350.0 L84.4,350.0 L84.8,350.0 L85.2,350.0 L85.6,350.0 L86.0,350.0 L86.4,350.0 L86.8,350.0 L87.2,350.0 L87.6,350.0 L88.0,350.0 L88.4,350.0 L88.8,350.0 L89.2,350.0 L89.6,350.0 L90.0,350.0 L90.4,350.0 L90.8,350.0 L91.3,350.0 L91.7,350.0 L92.1,350.0 L92.5,350.0 L92.9,350.0 L93.3,350.0 L93.7,350.0 L94.1,350.0 L94.5,350.0 L94.9,350.0 L95.3,350.0 L95.7,350.0 L96.1,350.0 L96.5,350.0 L96.9,350.0 L97.3,350.0 L97.7,350.0 L98.1,350.0 L98.5,350.0 L98.9,350.0 L99.3,350.0 L99.7,350.0 L100.1,350.0 L100.5,350.0 L100.9,350.0 L101.3,350.0 L101.7,350.0 L102.1,350.0 L102.5,350.0 L102.9,350.0 L103.3,350.0 L103.7,350.0 L104.1,350.0 L104.5,350.0 L104.9,350.0 L105.3,350.0 L105.7,350.0 L106.1,350.0 L106.5,350.0 L106.9,350.0 L107.3,350.0 L107.7,350.0 L108.1,350.0 L108.5,350.0 L108.9,350.0 L109.3,350.0 L109.7,350.0 L110.1,350.0 L110.5,350.0 L110.9,350.0 L111.3,350.0 L111.7,350.0 L112.1,350.0 L112.5,350.0 L112.9,350.0 L113.3,350.0 L113.7,350.0 L114.1,350.0 L114.5,350.0 L114.9,350.0 L115.3,350.0 L115.7,350.0 L116.1,350.0 L116.5,350.0 L116.9,350.0 L117.3,350.0 L117.7,350.0 L118.1,350.0 L118.5,350.0 L118.9,350.0 L119.3,350.0 L119.7,350.0 L120.1,350.0 L120.5,350.0 L120.9,350.0 L121.3,350.0 L121.7,350.0 L122.1,350.0 L122.5,350.0 L122.9,350.0 L123.3,350.0 L123.7,350.0 L124.1,350.0 L124.5,350.0 L124.9,350.0 L125.3,350.0 L125.7,350.0 L126.1,350.0 L126.5,350.0 L126.9,350.0 L127.3,350.0 L127.7,350.0 L128.1,350.0 L128.5,350.0 L128.9,350.0 L129.3,350.0 L129.7,350.0 L130.1,350.0 L130.5,350.0 L130.9,350.0 L131.3,350.0 L131.7,350.0 L132.1,350.0 L132.5,350.0 L132.9,350.0 L133.3,350.0 L133.7,350.0 L134.1,350.0 L134.5,350.0 L134.9,350.0 L135.3,350.0 L135.7,350.0 L136.1,350.0 L136.5,350.0 L136.9,350.0 L137.3,350.0 L137.7,350.0 L138.1,350.0 L138.5,350.0 L138.9,350.0 L139.3,350.0 L139.7,350.0 L140.1,350.0 L140.5,350.0 L140.9,350.0 L141.3,350.0 L141.7,350.0 L142.1,350.0 L142.5,350.0 L142.9,350.0 L143.3,350.0 L143.7,350.0 L144.1,350.0 L144.5,350.0 L144.9,350.0 L145.3,350.0 L145.7,350.0 L146.1,350.0 L146.5,350.0 L146.9,350.0 L147.3,350.0 L147.7,350.0 L148.1,350.0 L148.5,350.0 L148.9,350.0 L149.3,350.0 L149.7,350.0 L150.1,350.0 L150.5,350.0 L150.9,350.0 L151.3,350.0 L151.7,350.0 L152.1,350.0 L152.5,350.0 L152.9,350.0 L153.3,350.0 L153.7,350.0 L154.1,350.0 L154.5,350.0 L154.9,350.0 L155.3,350.0 L155.7,350.0 L156.1,350.0 L156.5,350.0 L156.9,350.0 L157.3,350.0 L157.7,350.0 L158.1,350.0 L158.5,350.0 L158.9,350.0 L159.3,350.0 L159.7,350.0 L160.1,350.0 L160.5,350.0 L160.9,350.0 L161.3,350.0 L161.7,350.0 L162.1,350.0 L162.5,350.0 L162.9,350.0 L163.3,350.0 L163.7,350.0 L164.1,350.0 L164.5,350.0 L164.9,350.0 L165.3,350.0 L165.7,350.0 L166.1,350.0 L166.5,350.0 L166.9,350.0 L167.3,350.0 L167.7,350.0 L168.1,350.0 L168.5,350.0 L168.9,350.0 L169.3,350.0 L169.7,350.0 L170.1,350.0 L170.5,350.0 L170.9,350.0 L171.3,350.0 L171.7,350.0 L172.1,350.0 L172.5,350.0 L172.9,350.0 L173.3,350.0 L173.7,350.0 L174.1,350.0 L174.5,350.0 L174.9,350.0 L175.3,350.0 L175.7,350.0 L176.1,350.0 L176.5,350.0 L176.9,350.0 L177.3,350.0 L177.7,350.0 L178.1,350.0 L178.5,350.0 L178.9,350.0 L179.3,350.0 L179.7,350.0 L180.1,350.0 L180.5,350.0 L180.9,350.0 L181.3,350.0 L181.7,350.0 L182.1,350.0 L182.5,350.0 L182.9,350.0 L183.3,350.0 L183.7,350.0 L184.1,350.0 L184.5,350.0 L184.9,350.0 L185.3,350.0 L185.7,350.0 L186.1,350.0 L186.5,350.0 L186.9,350.0 L187.3,350.0 L187.7,350.0 L188.1,350.0 L188.5,350.0 L188.9,350.0 L189.3,350.0 L189.7,350.0 L190.1,350.0 L190.5,350.0 L190.9,350.0 L191.3,350.0 L191.7,350.0 L192.1,350.0 L192.5,350.0 L192.9,350.0 L193.3,350.0 L193.8,350.0 L194.2,350.0 L194.6,350.0 L195.0,350.0 L195.4,350.0 L195.8,350.0 L196.2,350.0 L196.6,350.0 L197.0,350.0 L197.4,350.0 L197.8,350.0 L198.2,350.0 L198.6,350.0 L199.0,350.0 L199.4,350.0 L199.8,350.0 L200.2,350.0 L200.6,350.0 L201.0,350.0 L201.4,350.0 L201.8,350.0 L202.2,350.0 L202.6,350.0 L203.0,350.0 L203.4,350.0 L203.8,350.0 L204.2,350.0 L204.6,350.0 L205.0,350.0 L205.4,350.0 L205.8,350.0 L206.2,350.0 L206.6,350.0 L207.0,350.0 L207.4,350.0 L207.8,350.0 L208.2,350.0 L208.6,350.0 L209.0,350.0 L209.4,350.0 L209.8,350.0 L210.2,350.0 L210.6,350.0 L211.0,350.0 L211.4,350.0 L211.8,350.0 L212.2,350.0 L212.6,350.0 L213.0,350.0 L213.4,350.0 L213.8,350.0 L214.2,350.0 L214.6,350.0 L215.0,350.0 L215.4,350.0 L215.8,350.0 L216.2,350.0 L216.6,350.0 L217.0,350.0 L217.4,350.0 L217.8,350.0 L218.2,350.0 L218.6,350.0 L219.0,350.0 L219.4,350.0 L219.8,350.0 L220.2,350.0 L220.6,350.0 L221.0,350.0 L221.4,350.0 L221.8,350.0 L222.2,350.0 L222.6,350.0 L223.0,350.0 L223.4,350.0 L223.8,350.0 L224.2,350.0 L224.6,350.0 L225.0,350.0 L225.4,350.0 L225.8,350.0 L226.2,350.0 L226.6,350.0 L227.0,350.0 L227.4,350.0 L227.8,350.0 L228.2,350.0 L228.6,350.0 L229.0,350.0 L229.4,350.0 L229.8,350.0 L230.2,350.0 L230.6,350.0 L231.0,350.0 L231.4,350.0 L231.8,350.0 L232.2,350.0 L232.6,350.0 L233.0,350.0 L233.4,350.0 L233.8,350.0 L234.2,350.0 L234.6,350.0 L235.0,350.0 L235.4,350.0 L235.8,350.0 L236.2,350.0 L236.6,350.0 L237.0,350.0 L237.4,350.0 L237.8,350.0 L238.2,350.0 L238.6,350.0 L239.0,350.0 L239.4,350.0 L239.8,350.0 L240.2,350.0 L240.6,350.0 L241.0,350.0 L241.4,350.0 L241.8,350.0 L242.2,350.0 L242.6,350.0 L243.0,350.0 L243.4,350.0 L243.8,350.0 L244.2,350.0 L244.6,350.0 L245.0,169.4 L245.4,166.7 L245.8,171.8 L246.2,169.9 L246.6,171.8 L247.0,170.2 L247.4,169.8 L247.8,172.2 L248.2,173.3 L248.6,170.1 L249.0,169.8 L249.4,169.2 L249.8,171.1 L250.2,171.0 L250.6,174.0 L251.0,170.2 L251.4,172.8 L251.8,171.8 L252.2,171.6 L252.6,169.3 L253.0,170.9 L253.4,170.9 L253.8,169.6 L254.2,169.6 L254.6,171.8 L255.0,171.1 L255.4,168.6 L255.8,169.5 L256.2,169.1 L256.6,171.2 L257.0,171.1 L257.4,169.7 L257.8,172.2 L258.2,169.5 L258.6,170.1 L259.0,169.0 L259.4,169.9 L259.8,170.4 L260.2,170.5 L260.6,169.1 L261.0,169.4 L261.4,171.2 L261.8,169.0 L262.2,170.6 L262.6,171.3 L263.0,172.3 L263.4,172.1 L263.8,168.2 L264.2,173.1 L264.6,172.3 L265.0,170.9 L265.4,169.0 L265.8,168.0 L266.2,170.9 L266.6,170.4 L267.0,171.3 L267.4,170.8 L267.8,169.8 L268.2,170.1 L268.6,169.1 L269.0,169.9 L269.4,169.1 L269.8,167.8 L270.2,172.1 L270.6,170.6 L271.0,171.1 L271.4,170.0 L271.8,168.7 L272.2,170.2 L272.6,169.8 L273.0,171.1 L273.4,170.3 L273.8,170.8 L274.2,172.3 L274.6,170.6 L275.0,169.1 L275.4,168.9 L275.8,168.7 L276.2,170.8 L276.6,169.1 L277.0,167.9 L277.4,169.8 L277.8,171.1 L278.2,168.8 L278.6,170.1 L279.0,170.3 L279.4,172.9 L279.8,171.5 L280.2,167.9 L280.6,172.8 L281.0,170.4 L281.4,170.8 L281.8,168.4 L282.2,167.4 L282.6,171.3 L283.0,170.1 L283.4,172.8 L283.8,171.9 L284.2,168.8 L284.6,170.0 L285.0,170.1 L285.4,170.1 L285.8,169.5 L286.2,170.1 L286.6,172.0 L287.0,170.5 L287.4,170.2 L287.8,168.8 L288.2,169.7 L288.6,170.5 L289.0,170.0 L289.4,172.0 L289.8,168.8 L290.2,170.8 L290.6,173.3 L291.0,170.0 L291.4,168.5 L291.8,168.9 L292.2,169.5 L292.6,168.7 L293.0,169.1 L293.4,169.3 L293.8,170.8 L294.2,171.8 L294.6,168.4 L295.0,171.0 L295.4,170.5 L295.8,172.0 L296.3,169.8 L296.7,167.8 L297.1,172.7 L297.5,171.1 L297.9,171.5 L298.3,168.7 L298.7,169.8 L299.1,170.8 L299.5,168.7 L299.9,172.4 L300.3,170.4 L300.7,168.5 L301.1,169.9 L301.5,170.0 L301.9,170.3 L302.3,168.3 L302.7,171.5 L303.1,172.7 L303.5,171.0 L303.9,170.9 L304.3,168.1 L304.7,169.5 L305.1,170.8 L305.5,169.7 L305.9,172.8 L306.3,168.8 L306.7,170.3 L307.1,173.7 L307.5,171.7 L307.9,168.0 L308.3,170.2 L308.7,169.7 L309.1,168.9 L309.5,169.5 L309.9,169.7 L310.3,170.3 L310.7,172.3 L311.1,170.0 L311.5,171.0 L311.9,171.6 L312.3,173.2 L312.7,169.0 L313.1,167.8 L313.5,171.8 L313.9,170.1 L314.3,170.8 L314.7,169.8 L315.1,169.4 L315.5,170.2 L315.9,170.7 L316.3,170.7 L316.7,168.5 L317.1,169.8 L317.5,169.4 L317.9,169.6 L318.3,169.9 L318.7,170.0 L319.1,171.3 L319.5,171.5 L319.9,170.3 L320.3,170.7 L320.7,168.3 L321.1,170.1 L321.5,171.2 L321.9,169.6 L322.3,173.0 L322.7,169.0 L323.1,169.6 L323.5,175.0 L323.9,171.1 L324.3,168.1 L324.7,169.6 L325.1,170.5 L325.5,168.5 L325.9,169.6 L326.3,170.0 L326.7,171.4 L327.1,170.4 L327.5,171.0 L327.9,170.5 L328.3,171.2 L328.7,173.6 L329.1,167.7 L329.5,168.0 L329.9,172.5 L330.3,170.2 L330.7,169.8 L331.1,169.8 L331.5,169.0 L331.9,171.0 L332.3,169.8 L332.7,172.8 L333.1,169.4 L333.5,170.9 L333.9,169.0 L334.3,169.0 L334.7,170.4 L335.1,171.7 L335.5,172.3 L335.9,170.1 L336.3,172.0 L336.7,169.9 L337.1,167.7 L337.5,169.7 L337.9,170.9 L338.3,169.5 L338.7,173.0 L339.1,169.1 L339.5,170.2 L339.9,173.2 L340.3,171.2 L340.7,169.5 L341.1,169.0 L341.5,170.3 L341.9,168.5 L342.3,169.9 L342.7,171.1 L343.1,173.3 L343.5,170.3 L343.9,170.4 L344.3,171.3 L344.7,172.0 L345.1,172.4 L345.5,167.5 L345.9,169.7 L346.3,172.8 L346.7,169.6 L347.1,170.6 L347.5,170.1 L347.9,169.6 L348.3,170.7 L348.7,170.3 L349.1,172.0 L349.5,169.5 L349.9,170.0 L350.3,169.1 L350.7,168.9 L351.1,169.3 L351.5,171.2 L351.9,172.0 L352.3,171.3 L352.7,173.1 L353.1,168.5 L353.5,168.7 L353.9,169.1 L354.3,170.6 L354.7,168.8 L355.1,172.8 L355.5,168.5 L355.9,171.6 L356.3,172.2 L356.7,170.1 L357.1,170.5 L357.5,168.8 L357.9,169.5 L358.3,169.2 L358.7,170.1 L359.1,168.8 L359.5,171.1 L359.9,169.6 L360.3,171.6 L360.7,171.3 L361.1,171.3 L361.5,173.2 L361.9,168.3 L362.3,171.7 L362.7,172.6 L363.1,169.5 L363.5,169.8 L363.9,170.2 L364.3,170.6 L364.7,169.5 L365.1,171.3 L365.5,171.0 L365.9,169.8 L366.3,168.9 L366.7,170.1 L367.1,169.7 L367.5,168.3 L367.9,170.8 L368.3,172.9 L368.7,170.5 L369.1,171.9 L369.5,169.8 L369.9,169.1 L370.3,170.0 L370.7,170.2 L371.1,169.6 L371.5,172.3 L371.9,170.1 L372.3,171.6 L372.7,170.3 L373.1,170.7 L373.5,169.9 L373.9,170.0 L374.3,170.2 L374.7,169.1 L375.1,170.0 L375.5,168.1 L375.9,171.7 L376.3,170.8 L376.7,171.5 L377.1,171.6 L377.5,172.5 L377.9,174.2 L378.3,168.8 L378.7,172.1 L379.1,171.4 L379.5,169.9 L379.9,170.8 L380.3,169.6 L380.7,170.5 L381.1,169.6 L381.5,169.2 L381.9,172.6 L382.3,170.6 L382.7,169.9 L383.1,169.6 L383.5,169.8 L383.9,168.1 L384.3,168.9 L384.7,171.1 L385.1,170.8 L385.5,172.5 L385.9,170.9 L386.3,167.9 L386.7,169.5 L387.1,169.9 L387.5,171.5 L387.9,172.3 L388.3,170.0 L388.7,173.0 L389.1,169.9 L389.5,170.2 L389.9,169.2 L390.3,170.2 L390.7,171.6 L391.1,170.4 L391.5,169.3 L391.9,168.7 L392.3,171.2 L392.7,169.0 L393.1,171.2 L393.5,170.9 L393.9,172.7 L394.3,174.0 L394.7,167.9 L395.1,172.4 L395.5,171.1 L395.9,170.9 L396.3,169.5 L396.7,169.0 L397.1,171.5 L397.5,169.7 L397.9,170.0 L398.3,171.4 L398.8,170.2 L399.2,170.2 L399.6,170.0 L400.0,169.4 L400.4,169.1 L400.8,168.0 L401.2,172.3 L401.6,170.6 L402.0,172.0 L402.4,170.9 L402.8,168.7 L403.2,170.0 L403.6,168.9 L404.0,171.6 L404.4,170.1 L404.8,170.7 L405.2,172.7 L405.6,170.2 L406.0,169.8 L406.4,168.4 L406.8,169.4 L407.2,170.9 L407.6,170.3 L408.0,168.7 L408.4,169.6 L408.8,171.8 L409.2,169.0 L409.6,170.6 L410.0,171.0 L410.4,173.1 L410.8,171.8 L411.2,168.8 L411.6,172.6 L412.0,171.1 L412.4,171.0 L412.8,169.0 L413.2,167.6 L413.6,171.6 L414.0,170.4 L414.4,173.0 L414.8,171.0 L415.2,168.5 L415.6,170.1 L416.0,168.8 L416.4,169.9 L416.8,168.9 L417.2,169.9 L417.6,172.2 L418.0,169.4 L418.4,170.0 L418.8,168.6 L419.2,169.4 L419.6,169.6 L420.0,170.2 L420.4,171.2 L420.8,169.4 L421.2,170.6 L421.6,172.9 L422.0,170.3 L422.4,168.5 L422.8,169.3 L423.2,169.8 L423.6,169.2 L424.0,169.3 L424.4,168.7 L424.8,170.0 L425.2,171.1 L425.6,169.2 L426.0,171.1 L426.4,170.7 L426.8,171.9 L427.2,170.7 L427.6,167.8 L428.0,172.7 L428.4,171.0 L428.8,171.4 L429.2,167.6 L429.6,169.0 L430.0,170.1 L430.4,169.5 L430.8,172.0 L431.2,172.2 L431.6,168.5 L432.0,169.8 L432.4,170.0 L432.8,169.5 L433.2,169.0 L433.6,170.4 L434.0,171.9 L434.4,170.3 L434.8,170.9 L435.2,168.1 L435.6,170.1 L436.0,170.4 L436.4,169.8 L436.8,172.9 L437.2,169.9 L437.6,169.9 L438.0,173.8 L438.4,171.2 L438.8,168.6 L439.2,168.9 L439.6,169.7 L440.0,169.2 L440.4,169.6 L440.8,168.8 L441.2,171.0 L441.6,172.3 L442.0,170.1 L442.4,170.2 L442.8,171.1 L443.2,173.1 L443.6,169.5 L444.0,168.5 L444.4,172.8 L444.8,170.1 L445.2,171.2 L445.6,169.2 L446.0,169.9 L446.4,170.9 L446.8,169.3 L447.2,171.0 L447.6,169.3 L448.0,169.3 L448.4,169.4 L448.8,170.0 L449.2,169.9 L449.6,169.6 L450.0,171.0 L450.4,172.2 L450.8,170.7 L451.2,170.1 L451.6,168.5 L452.0,170.0 L452.4,171.0 L452.8,169.8 L453.2,173.0 L453.6,168.1 L454.0,168.9 L454.4,173.9 L454.8,171.0 L455.2,168.6 L455.6,170.3 L456.0,169.6 L456.4,168.7 L456.8,169.5 L457.2,168.8 L457.6,170.5 L458.0,171.4 L458.4,170.1 L458.8,170.3 L459.2,172.4 L459.6,172.8 L460.0,168.4 L460.4,169.0 L460.8,172.8 L461.2,169.6 L461.6,171.0 L462.0,168.9 L462.4,168.4 L462.8,169.8 L463.2,170.8 L463.6,172.1 L464.0,168.4 L464.4,170.0 L464.8,169.1 L465.2,170.1 L465.6,170.8 L466.0,171.2 L466.4,171.3 L466.8,170.5 L467.2,171.2 L467.6,170.1 L468.0,168.0 L468.4,169.9 L468.8,171.1 L469.2,169.9 L469.6,173.6 L470.0,169.5 L470.4,169.7 L470.8,174.3 L471.2,171.1 L471.6,168.4 L472.0,168.1 L472.4,170.9 L472.8,168.3 L473.2,169.5 L473.6,170.7 L474.0,171.2 L474.4,169.9 L474.8,171.3 L475.2,170.6 L475.6,171.6 L476.0,173.1 L476.4,167.8 L476.8,168.9 L477.2,172.3 L477.6,169.0 L478.0,169.4 L478.4,170.5 L478.8,168.7 L479.2,171.3 L479.6,170.0 L480.0,173.0 L480.4,170.0 L480.8,170.9 L481.2,169.9 L481.6,168.8 L482.0,169.7 L482.4,170.8 L482.8,170.4 L483.2,171.3 L483.6,171.7 L484.0,169.1 L484.4,167.8 L484.8,169.7 L485.2,170.9 L485.6,170.3 L486.0,173.3 L486.4,169.2 L486.8,171.3 L487.2,172.9 L487.6,171.0 L488.0,170.4 L488.4,169.3 L488.8,170.4 L489.2,168.8 L489.6,170.1 L490.0,170.5 L490.4,173.0 L490.8,169.6 L491.2,171.1 L491.6,171.3 L492.0,171.5 L492.4,173.2 L492.8,168.0 L493.2,170.6 L493.6,172.3 L494.0,169.3 L494.4,169.9 L494.8,170.3 L495.2,169.7 L495.6,171.0 L496.0,170.6 L496.4,171.7 L496.8,170.0 L497.2,170.3 L497.6,170.8 L498.0,169.0 L498.4,168.4 L498.8,171.8 L499.2,172.6 L499.6,170.6 L500.0,172.2 L500.4,169.2 L500.8,169.1 L501.3,169.7 L501.7,170.3 L502.1,168.4 L502.5,173.0 L502.9,169.4 L503.3,171.4 L503.7,170.3 L504.1,170.5 L504.5,170.5 L504.9,170.0 L505.3,169.4 L505.7,169.4 L506.1,169.9 L506.5,168.1 L506.9,171.1 L507.3,170.8 L507.7,172.3 L508.1,171.7 L508.5,171.4 L508.9,173.5 L509.3,168.4 L509.7,172.3 L510.1,171.3 L510.5,170.6 L510.9,170.1 L511.3,170.3 L511.7,170.9 L512.1,169.2 L512.5,170.5 L512.9,171.1 L513.3,170.3 L513.7,169.4 L514.1,170.3 L514.5,170.2 L514.9,169.0 L515.3,170.2 L515.7,172.4 L516.1,170.7 L516.5,172.5 L516.9,169.9 L517.3,168.7 L517.7,169.5 L518.1,170.2 L518.5,169.7 L518.9,171.6 L519.3,170.8 L519.7,172.4 L520.1,170.3 L520.5,170.6 L520.9,170.2 L521.3,169.8 L521.7,170.8 L522.1,169.9 L522.5,169.4 L522.9,168.3 L523.3,170.7 L523.7,170.2 L524.1,171.1 L524.5,170.9 L524.9,172.6 L525.3,173.6 L525.7,168.4 L526.1,172.1 L526.5,171.1 L526.9,170.1 L527.3,170.4 L527.7,169.2 L528.1,171.5 L528.5,169.8 L528.9,170.2 L529.3,171.0 L529.7,170.3 L530.1,169.6 L530.5,169.7 L530.9,169.2 L531.3,168.4 L531.7,168.8 L532.1,172.1 L532.5,171.2 L532.9,171.4 L533.3,171.3 L533.7,168.3 L534.1,169.3 L534.5,169.3 L534.9,171.0 L535.3,171.3 L535.7,169.8 L536.1,172.2 L536.5,169.2 L536.9,170.0 L537.3,169.3 L537.7,169.7 L538.1,170.5 L538.5,170.7 L538.9,169.2 L539.3,169.2 L539.7,171.7 L540.1,169.2 L540.5,170.7 L540.9,171.1 L541.3,172.1 L541.7,172.3 L542.1,168.4 L542.5,173.2 L542.9,171.8 L543.3,171.3 L543.7,168.9 L544.1,168.2 L544.5,170.8 L544.9,170.5 L545.3,171.2 L545.7,170.5 L546.1,169.8 L546.5,170.1 L546.9,169.4 L547.3,169.4 L547.7,169.5 L548.1,167.5 L548.5,172.7 L548.9,170.7 L549.3,171.2 L549.7,169.7 L550.1,168.5 L550.5,170.4 L550.9,170.0 L551.3,171.1 L551.7,170.8 L552.1,170.6 L552.5,172.2 L552.9,170.5 L553.3,168.8 L553.7,168.7 L554.1,168.8 L554.5,170.7 L554.9,169.2 L555.3,168.3 L555.7,169.8 L556.1,171.4 L556.5,169.3 L556.9,170.0 L557.3,170.1 L557.7,173.2 L558.1,171.3 L558.5,168.0 L558.9,172.6 L559.3,170.0 L559.7,170.8 L560.1,168.7 L560.5,167.3 L560.9,171.1 L561.3,170.2 L561.7,172.6 L562.1,171.8 L562.5,168.7 L562.9,169.8 L563.3,170.2 L563.7,170.2 L564.1,169.4 L564.5,170.3 L564.9,172.0 L565.3,170.3 L565.7,169.9 L566.1,168.5 L566.5,170.0 L566.9,170.1 L567.3,170.2 L567.7,172.1 L568.1,169.0 L568.5,171.0 L568.9,173.4 L569.3,170.1 L569.7,168.6 L570.1,168.7 L570.5,169.3 L570.9,168.5 L571.3,169.6 L571.7,169.2 L572.1,170.9 L572.5,171.6 L572.9,168.4 L573.3,171.0 L573.7,170.3 L574.1,171.8 L574.5,169.9 L574.9,168.1 L575.3,172.4 L575.7,170.8 L576.1,171.7 L576.5,168.2 L576.9,169.8 L577.3,170.4 L577.7,168.8 L578.1,172.1 L578.5,170.7 L578.9,168.2 L579.3,170.1 L579.7,170.0 L580.1,170.5 L580.5,168.2 L580.9,171.1 L581.3,172.7 L581.7,170.8 L582.1,170.7 L582.5,168.5 L582.9,169.2 L583.3,171.0 L583.7,169.6 L584.1,172.6 L584.5,168.8 L584.9,170.4 L585.3,173.6 L585.7,171.4 L586.1,168.2 L586.5,170.1 L586.9,169.6 L587.3,169.0 L587.7,169.6 L588.1,169.9 L588.5,170.3 L588.9,172.1 L589.3,169.7 L589.7,171.1 L590.1,171.6 L590.5,172.8 L590.9,168.9 L591.3,167.8 L591.7,171.9 L592.1,169.6 L592.5,170.9 L592.9,169.8 L593.3,169.5 L593.7,170.2 L594.1,170.7 L594.5,170.7 L594.9,168.7 L595.3,169.8 L595.7,169.0 L596.1,169.5 L596.5,170.1 L596.9,170.3 L597.3,171.3 L597.7,171.5 L598.1,170.4 L598.5,170.8 L598.9,167.9 L599.3,170.5 L599.7,171.1 L600.1,169.4 L600.5,172.8 L600.9,168.4 L601.3,169.5 L601.7,174.6 L602.1,171.2 L602.5,168.1 L602.9,170.1 L603.3,170.2 L603.8,168.5 L604.2,169.7 L604.6,169.8 L605.0,171.1 L605.4,170.2 L605.8,171.3 L606.2,170.3 L606.6,171.3 L607.0,173.3 L607.4,168.0 L607.8,168.3 L608.2,172.0 L608.6,170.1 L609.0,169.8 L609.4,169.4 L609.8,169.0 L610.2,170.7 L610.6,169.9 L611.0,173.3 L611.4,169.2 L611.8,171.1 L612.2,169.0 L612.6,169.2 L613.0,170.5 L613.4,171.7 L613.8,172.1 L614.2,169.9 L614.6,172.2 L615.0,169.6 L615.4,167.9 L615.8,169.9 L616.2,170.9 L616.6,169.2 L617.0,173.1 L617.4,169.4 L617.8,170.2 L618.2,173.2 L618.6,171.1 L619.0,169.7 L619.4,169.1 L619.8,170.3 L620.2,168.8 L620.6,169.8 L621.0,170.7 L621.4,173.4 L621.8,170.4 L622.2,170.3 L622.6,171.3 L623.0,171.7 L623.4,172.6 L623.8,167.3 L624.2,169.9 L624.6,172.6 L625.0,169.5 L625.4,170.7 L625.8,170.3 L626.2,169.5 L626.6,170.8 L627.0,170.2 L627.4,171.9 L627.8,169.6 L628.2,170.3 L628.6,169.2 L629.0,168.7 L629.4,169.0 L629.8,171.2 L630.2,171.9 L630.6,171.3 L631.0,173.1 L631.4,168.7 L631.8,168.3 L632.2,168.9 L632.6,170.7 L633.0,168.7 L633.4,173.0 L633.8,168.5 L634.2,171.8 L634.6,172.6 L635.0,170.1 L635.4,170.4 L635.8,168.6 L636.2,169.7 L636.6,169.4 L637.0,170.2 L637.4,169.3 L637.8,171.1 L638.2,169.8 L638.6,171.9 L639.0,171.5 L639.4,171.5 L639.8,173.4 L640.2,168.5 L640.6,171.3 L641.0,172.3 L641.4,169.8 L641.8,169.6 L642.2,170.2 L642.6,171.1 L643.0,169.7 L643.4,171.1 L643.8,170.8 L644.2,170.0 L644.6,168.9 L645.0,170.3 L645.4,169.6 L645.8,168.5 L646.2,170.9 L646.6,172.7 L647.0,170.1 L647.4,171.6 L647.8,169.5 L648.2,169.0 L648.6,169.8 L649.0,170.0 L649.4,169.4 L649.8,172.6 L650.2,170.3 L650.6,171.6 L651.0,170.3 L651.4,170.8 L651.8,169.8 L652.2,169.6 L652.6,169.9 L653.0,169.3 L653.4,170.4 L653.8,168.5 L654.2,171.8 L654.6,170.6 L655.0,343.0 L655.4,350.0 L655.8,350.0 L656.2,350.0 L656.6,350.0 L657.0,350.0 L657.4,350.0 L657.8,350.0 L658.2,350.0 L658.6,350.0 L659.0,350.0 L659.4,350.0 L659.8,350.0 L660.2,350.0 L660.6,350.0 L661.0,350.0 L661.4,350.0 L661.8,350.0 L662.2,350.0 L662.6,350.0 L663.0,350.0 L663.4,350.0 L663.8,350.0 L664.2,350.0 L664.6,350.0 L665.0,350.0 L665.4,350.0 L665.8,350.0 L666.2,350.0 L666.6,350.0 L667.0,350.0 L667.4,350.0 L667.8,350.0 L668.2,350.0 L668.6,350.0 L669.0,350.0 L669.4,350.0 L669.8,350.0 L670.2,350.0 L670.6,350.0 L671.0,350.0 L671.4,350.0 L671.8,350.0 L672.2,350.0 L672.6,350.0 L673.0,350.0 L673.4,350.0 L673.8,350.0 L674.2,350.0 L674.6,350.0 L675.0,350.0 L675.4,350.0 L675.8,350.0 L676.2,350.0 L676.6,350.0 L677.0,350.0 L677.4,350.0 L677.8,350.0 L678.2,350.0 L678.6,350.0 L679.0,350.0 L679.4,350.0 L679.8,350.0 L680.2,350.0 L680.6,350.0 L681.0,350.0 L681.4,350.0 L681.8,350.0 L682.2,350.0 L682.6,350.0 L683.0,350.0 L683.4,350.0 L683.8,350.0 L684.2,350.0 L684.6,350.0 L685.0,350.0 L685.4,350.0 L685.8,350.0 L686.2,350.0 L686.6,350.0 L687.0,350.0 L687.4,350.0 L687.8,350.0 L688.2,350.0 L688.6,350.0 L689.0,350.0 L689.4,350.0 L689.8,350.0 L690.2,350.0 L690.6,350.0 L691.0,350.0 L691.4,350.0 L691.8,350.0 L692.2,350.0 L692.6,350.0 L693.0,350.0 L693.4,350.0 L693.8,350.0 L694.2,350.0 L694.6,350.0 L695.0,350.0 L695.4,350.0 L695.8,350.0 L696.2,350.0 L696.6,350.0 L697.0,350.0 L697.4,350.0 L697.8,350.0 L698.2,350.0 L698.6,350.0 L699.0,350.0 L699.4,350.0 L699.8,350.0 L700.2,350.0 L700.6,350.0 L701.0,350.0 L701.4,350.0 L701.8,350.0 L702.2,350.0 L702.6,350.0 L703.0,350.0 L703.4,350.0 L703.8,350.0 L704.2,350.0 L704.6,350.0 L705.0,350.0 L705.4,350.0 L705.8,350.0 L706.3,350.0 L706.7,350.0 L707.1,350.0 L707.5,350.0 L707.9,350.0 L708.3,350.0 L708.7,350.0 L709.1,350.0 L709.5,350.0 L709.9,350.0 L710.3,350.0 L710.7,350.0 L711.1,350.0 L711.5,350.0 L711.9,350.0 L712.3,350.0 L712.7,350.0 L713.1,350.0 L713.5,350.0 L713.9,350.0 L714.3,350.0 L714.7,350.0 L715.1,350.0 L715.5,350.0 L715.9,350.0 L716.3,350.0 L716.7,350.0 L717.1,350.0 L717.5,350.0 L717.9,350.0 L718.3,350.0 L718.7,350.0 L719.1,350.0 L719.5,350.0 L719.9,350.0 L720.3,350.0 L720.7,350.0 L721.1,350.0 L721.5,350.0 L721.9,350.0 L722.3,350.0 L722.7,350.0 L723.1,350.0 L723.5,350.0 L723.9,350.0 L724.3,350.0 L724.7,350.0 L725.1,350.0 L725.5,350.0 L725.9,350.0 L726.3,350.0 L726.7,350.0 L727.1,350.0 L727.5,350.0 L727.9,350.0 L728.3,350.0 L728.7,350.0 L729.1,350.0 L729.5,350.0 L729.9,350.0 L730.3,350.0 L730.7,350.0 L731.1,350.0 L731.5,350.0 L731.9,350.0 L732.3,350.0 L732.7,350.0 L733.1,350.0 L733.5,350.0 L733.9,350.0 L734.3,350.0 L734.7,350.0 L735.1,350.0 L735.5,350.0 L735.9,350.0 L736.3,350.0 L736.7,350.0 L737.1,350.0 L737.5,350.0 L737.9,350.0 L738.3,350.0 L738.7,350.0 L739.1,350.0 L739.5,350.0 L739.9,350.0 L740.3,350.0 L740.7,350.0 L741.1,350.0 L741.5,350.0 L741.9,350.0 L742.3,350.0 L742.7,350.0 L743.1,350.0 L743.5,350.0 L743.9,350.0 L744.3,350.0 L744.7,350.0 L745.1,350.0 L745.5,350.0 L745.9,350.0 L746.3,350.0 L746.7,350.0 L747.1,350.0 L747.5,350.0 L747.9,350.0 L748.3,350.0 L748.7,350.0 L749.1,350.0 L749.5,350.0 L749.9,350.0 L750.3,350.0 L750.7,350.0 L751.1,350.0 L751.5,350.0 L751.9,350.0 L752.3,350.0 L752.7,350.0 L753.1,350.0 L753.5,350.0 L753.9,350.0 L754.3,350.0 L754.7,350.0 L755.1,350.0 L755.5,350.0 L755.9,350.0 L756.3,350.0 L756.7,350.0 L757.1,350.0 L757.5,350.0 L757.9,350.0 L758.3,350.0 L758.7,350.0 L759.1,350.0 L759.5,350.0 L759.9,350.0 L760.3,350.0 L760.7,350.0 L761.1,350.0 L761.5,350.0 L761.9,350.0 L762.3,350.0 L762.7,350.0 L763.1,350.0 L763.5,350.0 L763.9,350.0 L764.3,350.0 L764.7,350.0 L765.1,350.0 L765.5,350.0 L765.9,350.0 L766.3,350.0 L766.7,350.0 L767.1,350.0 L767.5,350.0 L767.9,350.0 L768.3,350.0 L768.7,350.0 L769.1,350.0 L769.5,350.0 L769.9,350.0 L770.3,350.0 L770.7,350.0 L771.1,350.0 L771.5,350.0 L771.9,350.0 L772.3,350.0 L772.7,350.0 L773.1,350.0 L773.5,350.0 L773.9,350.0 L774.3,350.0 L774.7,350.0 L775.1,350.0 L775.5,350.0 L775.9,350.0 L776.3,350.0 L776.7,350.0 L777.1,350.0 L777.5,350.0 L777.9,350.0 L778.3,350.0 L778.7,350.0 L779.1,350.0 L779.5,350.0 L779.9,350.0 L780.3,350.0 L780.7,350.0 L781.1,350.0 L781.5,350.0 L781.9,350.0 L782.3,350.0 L782.7,350.0 L783.1,350.0 L783.5,350.0 L783.9,350.0 L784.3,350.0 L784.7,350.0 L785.1,350.0 L785.5,350.0 L785.9,350.0 L786.3,350.0 L786.7,350.0 L787.1,350.0 L787.5,350.0 L787.9,350.0 L788.3,350.0 L788.7,350.0 L789.1,350.0 L789.5,350.0 L789.9,350.0 L790.3,350.0 L790.7,350.0 L791.1,350.0 L791.5,350.0 L791.9,350.0 L792.3,350.0 L792.7,350.0 L793.1,350.0 L793.5,350.0 L793.9,350.0 L794.3,350.0 L794.7,350.0 L795.1,350.0 L795.5,350.0 L795.9,350.0 L796.3,350.0 L796.7,350.0 L797.1,350.0 L797.5,350.0 L797.9,350.0 L798.3,350.0 L798.7,350.0 L799.1,350.0 L799.5,350.0 L799.9,350.0 L800.3,350.0 L800.7,350.0 L801.1,350.0 L801.5,350.0 L801.9,350.0 L802.3,350.0 L802.7,350.0 L803.1,350.0 L803.5,350.0 L803.9,350.0 L804.3,350.0 L804.7,350.0 L805.1,350.0 L805.5,350.0 L805.9,350.0 L806.3,350.0 L806.7,350.0 L807.1,350.0 L807.5,350.0 L807.9,350.0 L808.3,350.0 L808.8,350.0 L809.2,350.0 L809.6,350.0 L810.0,350.0 L810.4,350.0 L810.8,350.0 L811.2,350.0 L811.6,350.0 L812.0,350.0 L812.4,350.0 L812.8,350.0 L813.2,350.0 L813.6,350.0 L814.0,350.0 L814.4,350.0 L814.8,350.0 L815.2,350.0 L815.6,350.0 L816.0,350.0 L816.4,350.0 L816.8,350.0 L817.2,350.0 L817.6,350.0 L818.0,350.0 L818.4,350.0 L818.8,350.0 L819.2,350.0 L819.6,350.0 L820.0,350.0 L820.4,350.0 L820.8,350.0 L821.2,350.0 L821.6,350.0 L822.0,350.0 L822.4,350.0 L822.8,350.0 L823.2,350.0 L823.6,350.0 L824.0,350.0 L824.4,350.0 L824.8,350.0 L825.2,350.0 L825.6,350.0 L826.0,350.0 L826.4,350.0 L826.8,350.0 L827.2,350.0 L827.6,350.0 L828.0,350.0 L828.4,350.0 L828.8,350.0 L829.2,350.0 L829.6,350.0 L830.0,350.0 L830.4,350.0 L830.8,350.0 L831.2,350.0 L831.6,350.0 L832.0,350.0 L832.4,350.0 L832.8,350.0 L833.2,350.0 L833.6,350.0 L834.0,350.0 L834.4,350.0 L834.8,350.0 L835.2,350.0 L835.6,350.0 L836.0,350.0 L836.4,350.0 L836.8,350.0 L837.2,350.0 L837.6,350.0 L838.0,350.0 L838.4,350.0 L838.8,350.0 L839.2,350.0 L839.6,350.0 L840.0,350.0 L840.4,350.0 L840.8,350.0 L841.2,350.0 L841.6,350.0 L842.0,350.0 L842.4,350.0 L842.8,350.0 L843.2,350.0 L843.6,350.0 L844.0,350.0 L844.4,350.0 L844.8,350.0 L845.2,350.0 L845.6,350.0 L846.0,350.0 L846.4,350.0 L846.8,350.0 L847.2,350.0 L847.6,350.0 L848.0,350.0 L848.4,350.0 L848.8,350.0 L849.2,350.0 L849.6,350.0 L850.0,350.0 L850.4,350.0 L850.8,350.0 L851.2,350.0 L851.6,350.0 L852.0,350.0 L852.4,350.0 L852.8,350.0 L853.2,350.0 L853.6,350.0 L854.0,350.0 L854.4,350.0 L854.8,350.0 L855.2,350.0 L855.6,350.0 L856.0,350.0 L856.4,350.0 L856.8,350.0 L857.2,350.0 L857.6,350.0 L858.0,350.0 L858.4,350.0 L858.8,350.0 L859.2,350.0 L859.6,350.0" fill="none" stroke="#4db5ff" stroke-width="1.2"/>
  <rect x="40" y="394" width="11" height="11" rx="2" fill="#37d19a"/><text x="57" y="403" font-size="12" fill="#8a93a6" font-family="monospace">bootloader</text><rect x="170" y="394" width="11" height="11" rx="2" fill="#7c5cff"/><text x="187" y="403" font-size="12" fill="#8a93a6" font-family="monospace">executable</text><rect x="300" y="394" width="11" height="11" rx="2" fill="#4db5ff"/><text x="317" y="403" font-size="12" fill="#8a93a6" font-family="monospace">filesystem</text>
</svg>